HIERARCHY
ROOT Hips
{
	OFFSET 0.00000 0.00000 0.00000
	CHANNELS 6 Xposition Yposition Zposition Zrotation Yrotation Xrotation 
	JOINT LHipJoint
	{
		OFFSET 0 0 0
		CHANNELS 3 Zrotation Yrotation Xrotation
		JOINT LeftUpLeg
		{
			OFFSET 1.44361 -1.63093 0.70831
			CHANNELS 3 Zrotation Yrotation Xrotation
			JOINT LeftLeg
			{
				OFFSET 2.20103 -6.04728 0.00000
				CHANNELS 3 Zrotation Yrotation Xrotation
				JOINT LeftFoot
				{
					OFFSET 2.54154 -6.98283 0.00000
					CHANNELS 3 Zrotation Yrotation Xrotation
					JOINT LeftToeBase
					{
						OFFSET 0.05971 -0.16406 1.77582
						CHANNELS 3 Zrotation Yrotation Xrotation
						End Site
						{
							OFFSET 0.00000 -0.00000 0.90832
						}
					}
				}
			}
		}
	}
	JOINT RHipJoint
	{
		OFFSET 0 0 0
		CHANNELS 3 Zrotation Yrotation Xrotation
		JOINT RightUpLeg
		{
			OFFSET -1.65838 -1.63093 0.70830
			CHANNELS 3 Zrotation Yrotation Xrotation
			JOINT RightLeg
			{
				OFFSET -2.26926 -6.23475 0.00000
				CHANNELS 3 Zrotation Yrotation Xrotation
				JOINT RightFoot
				{
					OFFSET -2.34808 -6.45129 0.00000
					CHANNELS 3 Zrotation Yrotation Xrotation
					JOINT RightToeBase
					{
						OFFSET -0.18633 -0.51195 1.68539
						CHANNELS 3 Zrotation Yrotation Xrotation
						End Site
						{
							OFFSET -0.00000 -0.00000 0.88927
						}
					}
				}
			}
		}
	}
	JOINT LowerBack
	{
		OFFSET 0 0 0
		CHANNELS 3 Zrotation Yrotation Xrotation
		JOINT Spine
		{
			OFFSET -0.10393 2.01691 0.06920
			CHANNELS 3 Zrotation Yrotation Xrotation
			JOINT Spine1
			{
				OFFSET 0.04092 2.01302 -0.05283
				CHANNELS 3 Zrotation Yrotation Xrotation
				JOINT Neck
				{
					OFFSET 0 0 0
					CHANNELS 3 Zrotation Yrotation Xrotation
					JOINT Neck1
					{
						OFFSET -0.02870 1.58978 -0.03113
						CHANNELS 3 Zrotation Yrotation Xrotation
						JOINT Head
						{
							OFFSET 0.11532 1.54326 -0.29195
							CHANNELS 3 Zrotation Yrotation Xrotation
							End Site
							{
								OFFSET 0.04056 1.59999 -0.09535
							}
						}
					}
				}
				JOINT LeftShoulder
				{
					OFFSET 0 0 0
					CHANNELS 3 Zrotation Yrotation Xrotation
					JOINT LeftArm
					{
						OFFSET 3.30641 1.15764 0.01104
						CHANNELS 3 Zrotation Yrotation Xrotation
						JOINT LeftForeArm
						{
							OFFSET 4.63208 -0.00000 0.00000
							CHANNELS 3 Zrotation Yrotation Xrotation
							JOINT LeftHand
							{
								OFFSET 3.41924 -0.00000 -0.00000
								CHANNELS 3 Zrotation Yrotation Xrotation
								JOINT LeftFingerBase
								{
									OFFSET 0 0 0
									CHANNELS 3 Zrotation Yrotation Xrotation
									JOINT LeftHandIndex1
									{
										OFFSET 0.62537 -0.00000 -0.00000
										CHANNELS 3 Zrotation Yrotation Xrotation
										End Site
										{
											OFFSET 0.50419 -0.00000 -0.00000
										}
									}
								}
								JOINT LThumb
								{
									OFFSET 0 0 0
									CHANNELS 3 Zrotation Yrotation Xrotation
									End Site
									{
										OFFSET 0.51189 -0.00000 0.51189
									}
								}
							}
						}
					}
				}
				JOINT RightShoulder
				{
					OFFSET 0 0 0
					CHANNELS 3 Zrotation Yrotation Xrotation
					JOINT RightArm
					{
						OFFSET -3.78081 1.02180 -0.16609
						CHANNELS 3 Zrotation Yrotation Xrotation
						JOINT RightForeArm
						{
							OFFSET -4.40640 -0.00000 -0.00000
							CHANNELS 3 Zrotation Yrotation Xrotation
							JOINT RightHand
							{
								OFFSET -3.44675 -0.00000 0.00000
								CHANNELS 3 Zrotation Yrotation Xrotation
								JOINT RightFingerBase
								{
									OFFSET 0 0 0
									CHANNELS 3 Zrotation Yrotation Xrotation
									JOINT RightHandIndex1
									{
										OFFSET -0.51367 -0.00000 -0.00000
										CHANNELS 3 Zrotation Yrotation Xrotation
										End Site
										{
											OFFSET -0.41414 -0.00000 -0.00000
										}
									}
								}
								JOINT RThumb
								{
									OFFSET 0 0 0
									CHANNELS 3 Zrotation Yrotation Xrotation
									End Site
									{
										OFFSET -0.42046 -0.00000 0.42046
									}
								}
							}
						}
					}
				}
			}
		}
	}
}
MOTION
Frames: 11
Frame Time: .0083333
8.5764 21.0412 12.2330 179.1490 10.1920 -166.7720 0.0000 0.0000 0.0000 -7.6915 -16.2245 -63.7377 8.3642 16.3807 53.8640 1.6019 -0.8985 -23.6744 10.7196 -17.7951 -61.8677 0.0000 0.0000 0.0000 20.9703 5.4849 6.0171 -0.8170 -5.7677 16.1118 -0.2756 6.1322 -9.6523 -1.8396 8.5236 -24.3162 -9.0106 4.6426 5.3660 -1.8192 6.1959 4.0549 2.7902 3.1065 0.5124 -3.8653 -0.4613 -5.5164 5.4594 -2.0611 18.2206 2.2059 -1.1745 6.5175 -0.0000 0.0000 0.0000 -83.9078 1.4950 -6.1842 6.1532 -10.5175 -0.5669 -0.0000 -0.0000 43.2402 23.2185 -14.6780 -6.2036 -7.1250 0.0000 -0.0000 -2.9182 14.0860 2.1231 -0.0000 0.0000 0.0000 91.5779 16.9006 29.0277 -22.3530 33.3737 -6.7790 0.0000 0.0000 1.1354 -18.0665 -32.9639 10.0647 7.1250 -0.0000 -0.0000 17.6973 -63.4315 -8.0403
8.5801 21.2113 11.9681 179.2330 10.0768 -165.9500 0.0000 0.0000 0.0000 -8.4054 -15.7688 -62.4865 7.9919 16.1133 52.5335 1.7134 -1.4107 -24.3547 10.8556 -17.8637 -62.3117 0.0000 0.0000 0.0000 20.7820 5.1874 4.9398 -0.8937 -6.0256 16.8587 -0.0880 3.9281 -5.5634 -1.7278 8.2744 -23.5506 -9.6639 4.5420 5.1635 -2.0328 6.0593 3.9331 2.9460 3.0358 0.4790 -3.9337 -0.4868 -5.2853 5.9775 -2.1472 17.7953 2.3763 -1.1802 6.3503 -0.0000 0.0000 0.0000 -83.3848 0.6347 -2.5992 6.6207 -11.2933 -0.6553 -0.0000 -0.0000 39.9454 22.9607 -13.8707 -5.7994 -7.1250 0.0000 -0.0000 -3.0459 14.9822 2.1580 -0.0000 0.0000 0.0000 91.7166 15.8121 27.2885 -21.0911 31.9345 -6.0980 0.0000 0.0000 1.6016 -18.0817 -33.6209 10.2472 7.1250 -0.0000 -0.0000 18.2721 -64.0553 -8.5764
8.5751 21.3856 11.7023 179.3310 9.5925 -165.2780 0.0000 0.0000 0.0000 -9.0788 -15.7285 -61.0275 7.5962 15.8141 51.0949 1.8043 -2.1810 -24.8115 10.8472 -17.8595 -62.2845 0.0000 0.0000 0.0000 20.6474 4.6830 3.7914 -1.0056 -6.3809 17.8937 -0.0070 1.5219 -1.7055 -1.6782 8.1608 -23.2036 -10.0104 4.3578 5.1089 -2.2267 5.8027 3.7867 2.9507 2.9142 0.3784 -3.8515 -0.5378 -4.8602 6.3694 -2.3001 17.4881 2.4765 -1.2327 6.1891 -0.0000 0.0000 0.0000 -82.7475 -0.2480 1.3102 7.0787 -12.0486 -0.7480 -0.0000 -0.0000 36.7330 23.5560 -14.4210 -6.1967 -7.1250 0.0000 -0.0000 -2.6730 14.3219 1.9309 -0.0000 0.0000 0.0000 91.8151 14.4692 25.2142 -19.8597 30.4729 -5.4600 0.0000 0.0000 2.4059 -17.8292 -34.3229 10.2790 7.1250 -0.0000 -0.0000 19.2281 -64.6436 -9.3040
8.5654 21.5593 11.4378 179.6880 8.8908 -164.5740 0.0000 0.0000 0.0000 -9.3378 -15.9171 -59.5874 7.1908 15.4905 49.5923 1.8660 -3.0580 -25.0504 10.7487 -17.8099 -61.9629 0.0000 0.0000 0.0000 20.8980 4.4917 1.9888 -1.2773 -7.1625 20.1976 -0.0075 -0.6985 1.5419 -1.5292 7.8076 -22.1312 -9.9340 4.1376 4.9732 -2.3008 5.5132 3.6593 2.8599 2.7728 0.3685 -3.8663 -0.6234 -4.4172 6.8220 -2.4917 17.1370 2.6100 -1.3076 6.0157 0.0000 0.0000 0.0000 -82.1235 -1.2001 5.4174 7.5629 -12.8418 -0.8523 -0.0000 -0.0000 33.7952 24.9465 -16.0508 -7.3289 -7.1250 0.0000 -0.0000 -1.8549 12.3821 1.4147 0.0000 0.0000 0.0000 91.8038 13.0620 22.9361 -18.7183 29.0671 -4.8932 0.0000 0.0000 3.4144 -17.7352 -34.6178 10.2977 7.1250 -0.0000 -0.0000 19.6282 -64.8919 -9.6174
8.5505 21.7269 11.1811 179.9550 8.2005 -163.9090 0.0000 0.0000 0.0000 -9.6093 -16.2878 -58.0889 6.7826 15.1461 48.0473 1.9165 -4.0529 -25.2133 10.5668 -17.7165 -61.3664 0.0000 0.0000 0.0000 21.0265 4.4257 -0.2107 -1.6606 -8.1202 23.0797 -0.0593 -2.7013 4.4414 -1.3415 7.3333 -20.7066 -9.9156 3.8044 4.7626 -2.2743 5.0881 3.6241 2.9227 2.5536 0.4987 -3.4217 -0.4600 -5.2059 6.4529 -2.2347 17.4821 2.4344 -1.1565 6.2418 0.0000 -0.0000 0.0000 -81.7769 -2.3107 9.0278 8.1648 -13.8196 -0.9911 -0.0000 -0.0000 31.3318 25.7652 -16.4563 -7.7859 -7.1250 0.0000 -0.0000 -1.3447 11.8246 1.0409 0.0000 -0.0000 0.0000 91.6335 11.7661 21.0017 -17.6330 27.6847 -4.3774 0.0000 0.0000 4.6390 -18.0963 -35.2130 10.6709 7.1250 -0.0000 -0.0000 19.8252 -65.5441 -10.0158
8.5292 21.8885 10.9348 179.9890 7.5739 -163.4930 0.0000 0.0000 0.0000 -10.1440 -16.8206 -56.3155 6.3866 14.7928 46.5143 1.9672 -4.8366 -25.4374 10.3837 -17.6200 -60.7633 0.0000 0.0000 0.0000 20.9063 4.5574 -2.6042 -2.1810 -9.2333 26.5279 -0.1631 -5.0210 7.4908 -1.1502 6.8097 -19.1529 -10.0698 3.4369 4.7082 -2.2218 4.6088 3.6721 3.0993 2.3065 0.6246 -4.1041 -0.5296 -4.8166 7.0387 -2.2939 16.8669 2.7305 -1.1873 5.9930 -0.0000 -0.0000 0.0000 -81.5352 -3.3852 12.6601 8.9710 -15.1143 -1.1926 -0.0000 -0.0000 28.9174 26.0850 -16.0362 -7.7020 -7.1250 0.0000 -0.0000 -1.0947 12.2362 0.8380 -0.0000 -0.0000 0.0000 91.3724 10.4341 19.1302 -16.6020 26.3301 -3.9092 0.0000 0.0000 6.3506 -18.2755 -35.8797 10.9542 7.1250 -0.0000 -0.0000 20.3369 -66.2097 -10.5943
8.5056 22.0450 10.6978 180.0300 7.0705 -163.3970 0.0000 0.0000 0.0000 -10.7486 -17.2231 -54.1707 5.9753 14.4044 44.8827 2.0208 -5.2320 -25.7435 10.2779 -17.5632 -60.4133 0.0000 0.0000 0.0000 20.8485 5.0592 -4.9226 -2.8335 -10.4205 30.3493 -0.2832 -7.5211 10.1254 -1.0060 6.3822 -17.8976 -10.1642 3.2154 4.9752 -2.1429 4.2851 3.7134 3.2383 2.1477 0.5492 -4.0328 -0.5211 -5.1520 6.8341 -2.2456 17.0233 2.6568 -1.1623 6.0960 0.0000 0.0000 0.0000 -81.2933 -4.0503 16.5058 10.0462 -16.8118 -1.4883 -0.0000 -0.0000 26.5196 26.7159 -15.8893 -7.8455 -7.1250 0.0000 -0.0000 -0.6611 12.3048 0.5050 0.0000 0.0000 0.0000 91.0742 8.8483 16.8720 -15.6826 25.0884 -3.5103 0.0000 0.0000 8.3808 -17.8744 -35.6510 10.6455 7.1250 -0.0000 -0.0000 20.5503 -65.8845 -10.5565
8.4741 22.1836 10.4691 179.9880 6.5203 -163.1440 0.0000 0.0000 0.0000 -11.3615 -17.8410 -52.2998 5.5983 14.0274 43.3474 2.0765 -5.4044 -26.0902 10.2341 -17.5394 -60.2681 0.0000 0.0000 0.0000 20.6755 5.7867 -7.7598 -3.6460 -11.6739 34.5879 -0.3859 -10.7548 12.5007 -0.6478 5.1486 -14.3330 -10.1476 3.0114 5.0374 -2.0870 3.9923 3.6415 3.3003 2.0038 0.4732 -4.0186 -0.5502 -5.0288 6.7546 -2.2684 16.9306 2.6272 -1.1798 6.0460 -0.0000 -0.0000 0.0000 -81.2410 -4.5941 19.5838 11.2399 -18.6550 -1.8519 -0.0000 -0.0000 24.8626 27.6165 -16.0376 -8.2241 -7.1250 0.0000 -0.0000 -0.0761 12.0058 0.0586 -0.0000 -0.0000 0.0000 90.7778 7.1114 14.3313 -14.8132 23.8852 -3.1499 0.0000 0.0000 10.4099 -17.8943 -34.8397 10.4511 7.1250 -0.0000 -0.0000 19.6708 -65.1419 -9.7527
8.4423 22.3119 10.2459 179.8460 6.1337 -163.0760 0.0000 0.0000 0.0000 -12.1492 -18.3907 -50.2298 5.2368 13.6456 41.8357 2.1417 -5.3300 -26.5245 10.2697 -17.5587 -60.3859 0.0000 0.0000 0.0000 20.3811 6.6218 -10.6931 -4.6424 -12.9694 39.2540 -0.3270 -12.3295 12.5297 -0.9258 6.1297 -17.1611 -10.2529 2.8263 5.1076 -2.0201 3.7319 3.6396 3.4409 1.8724 0.4566 -3.9975 -0.5599 -4.8481 6.6747 -2.2496 16.7058 2.5987 -1.1756 5.9421 -0.0000 0.0000 0.0000 -81.3357 -5.3236 22.0342 12.3967 -20.3969 -2.2386 -0.0000 -0.0000 23.4805 28.4507 -16.3176 -8.6561 -7.1250 0.0000 -0.0000 0.4478 11.5640 -0.3489 -0.0000 0.0000 0.0000 90.4751 5.4768 11.7734 -13.9515 22.6654 -2.8094 0.0000 0.0000 12.3919 -18.1095 -34.4483 10.4807 7.1250 -0.0000 -0.0000 19.0311 -64.8378 -9.2909
8.4128 22.4282 10.0341 179.6450 5.9014 -163.2020 0.0000 0.0000 0.0000 -13.0296 -18.8154 -48.0225 4.8907 13.2596 40.3483 2.2099 -5.1659 -26.9851 10.3101 -17.5806 -60.5200 0.0000 0.0000 0.0000 19.9980 7.6040 -13.7362 -5.8346 -14.2661 44.3143 -0.0812 -12.2842 9.6806 -1.0799 6.6052 -18.5508 -10.4892 2.6328 5.2521 -1.9092 3.4603 3.7285 3.6995 1.7311 0.4897 -4.0059 -0.4978 -4.6596 6.5793 -2.1031 16.3307 2.5780 -1.1081 5.7831 -0.0000 0.0000 0.0000 -81.4041 -6.1725 24.4002 13.5425 -22.0768 -2.6537 -0.0000 -0.0000 21.6927 28.6817 -16.2730 -8.7154 -7.1250 0.0000 -0.0000 0.6053 11.5764 -0.4715 -0.0000 0.0000 0.0000 90.1462 3.8939 9.2687 -13.2491 21.6511 -2.5444 0.0000 0.0000 14.2482 -17.3607 -35.0754 10.1847 7.1250 -0.0000 -0.0000 20.5250 -65.2104 -10.2249
8.3858 22.5332 9.8306 179.2470 5.7267 -163.5190 0.0000 0.0000 0.0000 -14.1687 -19.2184 -45.6626 4.5620 12.8728 38.8943 2.2792 -5.3327 -27.4020 10.2044 -17.5232 -60.1693 0.0000 0.0000 0.0000 19.3216 8.6368 -16.7986 -7.1128 -15.4261 49.2995 0.1187 -10.7997 5.5675 -1.7567 8.3398 -23.7510 -10.9142 2.4343 5.4826 -1.8166 3.1821 3.8938 4.0427 1.5846 0.5551 -4.1803 -0.3663 -4.5531 6.6595 -1.8730 15.9850 2.6460 -0.9961 5.6453 -0.0000 0.0000 0.0000 -81.4025 -7.1190 26.7301 14.6796 -23.6979 -3.0960 -0.0000 -0.0000 19.6248 28.8011 -16.3827 -8.8144 -7.1250 0.0000 -0.0000 0.6722 11.4347 -0.5256 -0.0000 0.0000 0.0000 89.9221 2.4227 6.3733 -12.6294 20.7418 -2.3204 0.0000 0.0000 16.2492 -16.3132 -36.0517 9.7728 7.1250 -0.0000 -0.0000 22.7835 -65.8030 -11.7117
